<?xml version="1.0" standalone="no"?>
<!DOCTYPE svg PUBLIC "-//W3C//DTD SVG 20010904//EN"
 "http://www.w3.org/TR/2001/REC-SVG-20010904/DTD/svg10.dtd">
<svg version="1.0" xmlns="http://www.w3.org/2000/svg"
 width="1156.000000pt" height="1156.000000pt" viewBox="0 0 1156.000000 1156.000000"
 preserveAspectRatio="xMidYMid meet">
<metadata>
Created by potrace 1.14, written by Peter Selinger 2001-2017
</metadata>
<g transform="translate(0.000000,1156.000000) scale(0.100000,-0.100000)"
fill="#000000" stroke="none">
<path d="M0 5780 l0 -5780 5780 0 5780 0 0 5780 0 5780 -5780 0 -5780 0 0
-5780z m6586 5338 c26 -29 67 -83 91 -120 24 -38 47 -68 51 -68 4 0 23 -26 42
-57 19 -32 52 -76 73 -98 21 -22 45 -53 54 -70 9 -16 34 -57 57 -91 23 -33 52
-80 66 -103 38 -65 170 -264 190 -286 10 -11 41 -56 70 -100 29 -44 62 -90 73
-102 11 -12 25 -31 31 -42 6 -10 30 -52 53 -93 23 -40 59 -97 80 -125 41 -57
120 -172 183 -268 22 -33 56 -85 77 -115 20 -30 52 -82 71 -115 19 -33 56 -91
84 -130 27 -38 65 -95 85 -125 20 -30 52 -79 72 -109 65 -98 89 -135 122 -191
17 -30 75 -116 127 -190 52 -74 99 -146 104 -160 5 -13 24 -43 42 -65 18 -22
40 -54 49 -71 25 -49 158 -248 230 -347 22 -28 47 -68 58 -89 10 -20 57 -94
104 -163 47 -70 85 -129 85 -132 0 -3 41 -61 90 -130 50 -68 97 -137 105 -152
18 -37 185 -294 253 -391 83 -120 134 -195 183 -273 66 -103 170 -260 228
-342 27 -38 65 -94 83 -123 44 -71 105 -165 220 -342 52 -80 112 -174 132
-210 21 -36 63 -108 93 -160 30 -52 59 -104 63 -116 5 -12 24 -45 43 -75 19
-30 38 -65 42 -79 4 -14 23 -53 42 -88 35 -62 81 -167 129 -292 14 -36 34 -84
45 -108 10 -23 26 -75 35 -115 9 -39 23 -85 32 -102 31 -61 70 -280 82 -460 9
-138 0 -284 -27 -415 -8 -41 -19 -97 -23 -125 -10 -64 -52 -169 -148 -374 -73
-156 -93 -191 -172 -306 -178 -257 -462 -535 -623 -610 -18 -8 -57 -29 -87
-47 -30 -17 -75 -39 -100 -49 -25 -9 -79 -32 -120 -49 -41 -17 -109 -41 -150
-52 -132 -35 -304 -76 -350 -82 -25 -4 -74 -13 -110 -21 -36 -7 -130 -18 -210
-24 -80 -6 -215 -16 -300 -23 -201 -17 -1065 -17 -1550 -1 -283 10 -1159 27
-1390 27 -43 0 -129 -61 -148 -107 -8 -17 -55 -94 -106 -171 -51 -78 -96 -148
-100 -156 -3 -8 -20 -35 -36 -60 -16 -25 -41 -67 -56 -95 -40 -76 -96 -168
-115 -190 -10 -11 -41 -65 -69 -120 -29 -55 -64 -118 -78 -140 -63 -98 -77
-117 -92 -125 -9 -5 -31 -42 -49 -82 -18 -40 -37 -83 -43 -94 -15 -32 -97 -91
-143 -102 -24 -6 -136 -9 -280 -7 -132 2 -465 5 -739 5 -274 1 -505 4 -513 7
-31 12 -12 62 74 189 47 71 96 144 107 162 12 18 50 76 84 130 35 53 71 110
79 127 23 42 185 292 226 345 19 25 44 64 55 87 12 23 34 61 50 85 16 24 46
70 67 103 21 33 84 130 140 215 56 85 130 202 165 260 35 58 122 195 195 305
73 110 140 216 150 235 10 19 27 46 37 60 18 23 153 230 332 507 174 270 221
342 257 393 22 30 49 73 60 95 12 22 82 132 157 245 179 272 222 338 252 388
14 23 48 77 77 120 28 42 82 123 120 180 37 57 78 117 90 135 12 18 44 70 73
117 28 47 100 154 161 238 60 85 117 168 126 185 8 18 33 52 53 77 21 25 55
77 76 115 21 39 54 93 73 120 19 28 53 77 76 110 23 33 61 93 85 133 68 115
109 134 169 79 25 -23 141 -194 141 -208 0 -4 23 -39 52 -76 46 -61 94 -130
214 -313 104 -157 143 -213 206 -297 37 -50 68 -95 68 -101 0 -5 31 -52 68
-103 37 -52 78 -111 91 -131 27 -45 39 -135 21 -168 -8 -15 -64 -48 -169 -97
-153 -74 -233 -127 -316 -209 -47 -47 -159 -190 -195 -249 -13 -22 -53 -84
-89 -139 -36 -54 -69 -104 -73 -110 -4 -6 -36 -63 -71 -127 -36 -65 -81 -141
-100 -171 -20 -29 -58 -97 -85 -149 -26 -53 -58 -109 -70 -124 -27 -34 -29
-81 -4 -93 39 -21 159 -32 372 -37 124 -2 371 -8 550 -12 475 -10 864 -8 1040
6 174 13 394 46 456 67 23 8 81 25 130 40 199 57 450 250 533 410 l36 69 0
160 c0 154 -1 164 -34 265 -38 119 -77 227 -91 252 -6 10 -29 64 -51 120 -22
57 -71 162 -109 233 -38 72 -84 160 -103 196 -19 37 -51 95 -72 130 -21 35
-59 98 -83 139 -25 41 -64 104 -87 140 -23 36 -47 79 -52 95 -6 17 -46 82 -90
145 -44 63 -88 131 -98 150 -31 61 -107 183 -152 244 -24 32 -43 63 -43 68 0
6 -42 74 -93 152 -52 77 -123 189 -158 247 -72 120 -155 248 -247 382 -34 51
-71 111 -82 134 -20 45 -86 147 -143 223 -19 25 -62 92 -96 148 -34 57 -77
123 -96 147 -18 24 -45 68 -59 97 -14 29 -42 73 -61 98 -89 116 -112 148 -142
201 -30 54 -58 94 -136 193 -18 23 -40 57 -49 77 -9 20 -30 52 -46 70 -16 19
-35 45 -42 59 -7 14 -27 43 -45 65 -17 22 -43 61 -58 86 -14 25 -56 83 -92
128 -37 46 -81 111 -99 145 -52 100 -149 136 -179 67 -6 -14 -38 -57 -72 -96
-33 -38 -81 -104 -105 -145 -25 -41 -72 -113 -105 -160 -107 -151 -226 -329
-370 -555 -21 -33 -59 -91 -85 -130 -26 -38 -72 -113 -103 -165 -32 -52 -70
-113 -87 -135 -16 -22 -40 -62 -54 -90 -14 -27 -45 -79 -68 -114 -59 -87 -106
-162 -118 -186 -6 -11 -24 -40 -40 -65 -16 -25 -37 -58 -46 -75 -9 -16 -33
-50 -54 -75 -20 -25 -54 -74 -74 -110 -20 -36 -71 -117 -112 -180 -41 -63 -95
-149 -120 -190 -25 -41 -61 -95 -79 -120 -18 -25 -75 -110 -125 -190 -153
-245 -171 -272 -229 -358 -69 -103 -153 -235 -180 -282 -12 -19 -34 -53 -50
-75 -16 -22 -49 -73 -71 -113 -23 -40 -56 -92 -74 -115 -55 -75 -92 -131 -126
-192 -33 -60 -113 -179 -137 -203 -6 -7 -26 -40 -43 -75 -18 -34 -49 -84 -69
-112 -21 -27 -59 -86 -86 -130 -71 -118 -134 -215 -170 -260 -18 -22 -47 -67
-65 -100 -19 -33 -42 -71 -51 -85 -9 -14 -50 -77 -91 -141 -40 -63 -79 -124
-85 -135 -7 -10 -20 -32 -29 -49 -9 -16 -32 -49 -51 -72 -31 -38 -67 -94 -175
-273 -46 -76 -157 -246 -280 -428 -49 -71 -88 -133 -88 -137 0 -4 -19 -32 -43
-63 -23 -32 -65 -97 -91 -147 -27 -49 -68 -112 -91 -140 -23 -27 -58 -75 -78
-105 -20 -30 -44 -66 -54 -80 -10 -14 -26 -41 -37 -60 -44 -83 -72 -115 -111
-129 -30 -10 -144 -16 -465 -22 -234 -4 -533 -13 -665 -20 -132 -7 -252 -12
-267 -11 -41 2 -68 20 -68 45 0 58 136 300 240 427 20 25 47 63 60 85 23 39
50 83 127 203 93 145 117 184 208 333 28 44 90 142 138 218 49 75 110 169 135
209 26 40 61 94 78 120 17 27 47 75 65 107 19 33 83 135 144 228 60 92 142
217 180 278 79 125 126 199 241 375 43 67 111 172 149 233 39 61 94 148 123
194 29 45 80 126 115 180 60 95 96 151 245 382 130 202 160 250 192 305 17 30
39 66 49 80 25 33 182 274 212 326 48 81 105 171 278 435 74 112 89 136 179
283 24 38 68 108 99 155 77 118 116 179 144 226 12 22 57 92 98 155 125 193
156 242 212 332 30 48 106 167 169 265 64 98 126 196 139 218 13 22 47 76 76
120 28 44 73 114 100 155 26 41 75 116 109 165 33 50 81 124 106 166 49 83 75
124 225 353 55 85 111 172 125 195 14 23 62 99 108 169 45 70 97 151 115 180
17 30 50 79 72 110 23 32 56 84 75 117 19 33 51 85 72 115 21 30 77 114 123
185 47 72 102 155 122 185 21 30 54 82 73 115 35 61 90 142 161 234 20 26 56
83 80 126 23 44 64 112 90 150 26 39 58 95 72 125 21 48 49 76 79 79 3 1 28
-23 54 -51z"/>
</g>
</svg>
